<?xml version="1.0" encoding="utf-8"?>
<!-- Generator: Adobe Illustrator 17.0.0, SVG Export Plug-In . SVG Version: 6.00 Build 0)  -->
<!DOCTYPE svg PUBLIC "-//W3C//DTD SVG 1.1//EN" "http://www.w3.org/Graphics/SVG/1.1/DTD/svg11.dtd">
<svg version="1.1" id="Layer_1" xmlns="http://www.w3.org/2000/svg" xmlns:xlink="http://www.w3.org/1999/xlink" x="0px" y="0px"
	 width="93.516px" height="116.712px" viewBox="0 0 93.516 116.712" enable-background="new 0 0 93.516 116.712"
	 xml:space="preserve">
<path fill="#EDF0F1" d="M92.98,92.306L92.98,92.306c-1.446-27.743-2.169-35.722-3.571-47.368C86.794,23.223,71.473,0,46.436,0
	C21.399,0,0.033,20.806,0.033,45.843c0,0.697-0.026,49.719-0.026,49.719l0.034-0.001c-0.096,2.81-0.051,5.535,0.437,6.102
	c1.076,1.25,1.315,3.25,2.75,2.875s3.468-7.25,4.425-7.125c0.957,0.125,1.913,1.625,1.674,3.75
	c-0.239,2.125,2.392,13.25,8.491,13.125s12.078-12.124,13.155-12.812c1.076-0.688,1.913,1.312,2.75,2.187s5.023,14.75,15.905,12.875
	c10.882-1.875,16.623-12.875,17.938-13.25s1.555,1.125,2.272,1.75s2.153,5.5,8.132,5.25c5.979-0.25,4.903-5.951,6.577-7.6
	c1.674-1.65,1.794-2.65,2.631-1.025s-1.076,6.75,2.631,6.75c3.707,0,3.707-4.125,3.707-7.75
	C93.516,98.225,93.192,94.493,92.98,92.306z"/>
<path fill="#242424" d="M67.658,68.938c0,0-15.835,1.869-21.223,1.875c-5.524,0.006-21.777-1.875-21.777-1.875
	s16.332,0.439,21.777,0.438C51.743,69.374,67.658,68.938,67.658,68.938z M30.908,27.438c-6.075,0-11,4.925-11,11s4.925,11,11,11
	s11-4.925,11-11S36.984,27.438,30.908,27.438z M60.908,33.188c-5.109,0-9.25,4.141-9.25,9.25s4.141,9.25,9.25,9.25
	s9.25-4.141,9.25-9.25S66.017,33.188,60.908,33.188z"/>
</svg>
